<svg aria-hidden="true" style="position: absolute; width: 0; height: 0; overflow: hidden;" version="1.1" xmlns="http://www.w3.org/2000/svg" xmlns:xlink="http://www.w3.org/1999/xlink">
<defs>
<symbol id="icon-telegram" viewBox="0 0 33 32">
<path fill="#f8d24e" style="fill: var(--color1, #f8d24e)" d="M32.235 16c0 8.837-7.163 16-16 16s-16-7.163-16-16c0-8.837 7.163-16 16-16s16 7.163 16 16z"></path>
<path fill="#fff" style="fill: var(--color2, #fff)" d="M13.102 18.375l-0.317 4.17c0.454 0 0.65-0.183 0.887-0.401l2.13-1.9 4.415 3.017c0.81 0.42 1.38 0.199 1.598-0.695l2.898-12.673c0.258-1.118-0.432-1.554-1.22-1.28l-17.033 6.086c-1.163 0.42-1.145 1.026-0.198 1.3l4.355 1.264 10.114-5.907c0.476-0.294 0.91-0.131 0.553 0.163l-8.182 6.856z"></path>
</symbol>
<symbol id="icon-button" viewBox="0 0 19 32">
<path fill="none" stroke="#fcfcfc" style="stroke: var(--color3, #fcfcfc)" stroke-linejoin="round" stroke-linecap="round" stroke-miterlimit="4" stroke-width="5.3333" d="M3.787 3.091l11.413 11.877-11.413 11.88"></path>
</symbol>
<symbol id="icon-facebook" viewBox="0 0 32 32">
<path fill="#f8d24e" style="fill: var(--color1, #f8d24e)" d="M16 32c8.837 0 16-7.163 16-16s-7.163-16-16-16-16 7.163-16 16 7.163 16 16 16z"></path>
<path fill="#fcfcfc" style="fill: var(--color3, #fcfcfc)" d="M20.446 15.981h-2.61v9.619h-3.956v-9.62h-1.88v-3.38h1.88v-2.187c0-1.565 0.74-4.014 3.99-4.014l2.93 0.012v3.281h-2.125c-0.35 0-0.84 0.176-0.84 0.922v1.99h2.956l-0.345 3.376z"></path>
</symbol>
<symbol id="icon-Ice-Logo" viewBox="0 0 32 32">
<path fill="#f8d24e" style="fill: var(--color1, #f8d24e)" d="M16.112 14.248c1.513-4.047-1.62-6.262-3.696-7.717-0.396-0.297-0.794-0.575-1.116-0.83-0.562-0.469-0.985-1.085-1.212-1.79l-0.008-0.027c-0.111-0.341-0.175-0.734-0.175-1.142 0-0.369 0.052-0.726 0.15-1.064l-0.007 0.027c0.010-0.034 0.015-0.072 0.015-0.112 0-0.123-0.053-0.233-0.138-0.309l-0-0c-0.076-0.070-0.179-0.113-0.291-0.113-0.052 0-0.103 0.009-0.149 0.027l0.003-0.001c-0.738 0.292-1.374 0.673-1.937 1.141l0.011-0.009c-0.548 0.418-0.99 0.946-1.299 1.553l-0.012 0.026c-0.296 0.579-0.47 1.263-0.471 1.987v0c-0.392 0.304-0.738 0.661-1.028 1.060-0.476 0.634-0.763 1.434-0.763 2.301 0 0.065 0.002 0.129 0.005 0.193l-0-0.009c-0.62 0.562-1.094 1.275-1.364 2.080l-0.010 0.035c-0.153 0.451-0.241 0.971-0.241 1.512 0 0.352 0.038 0.696 0.109 1.027l-0.006-0.032c-0.251 0.151-0.444 0.374-0.554 0.641l-0.003 0.009c-0.109 0.271-0.125 0.57-0.044 0.851 0.080 0.279 0.251 0.527 0.488 0.702s0.524 0.269 0.82 0.267h0.028v2.301c0 0.234 0.094 0.458 0.261 0.623s0.395 0.258 0.632 0.258h0.695l1.132 9.667c0.023 0.215 0.126 0.414 0.29 0.559s0.375 0.224 0.595 0.224h4.709c0.219 0 0.432-0.080 0.595-0.225s0.268-0.343 0.293-0.558l1.132-9.666h0.695c0.237 0 0.464-0.094 0.632-0.258 0.161-0.159 0.261-0.379 0.261-0.623 0-0 0-0 0-0v0-2.301h0.027c0.359 0 0.704-0.14 0.958-0.39s0.396-0.59 0.396-0.944c0-0.004 0-0.009 0-0.014 0-0.367-0.152-0.699-0.397-0.936l-0-0-0.012 0.004zM5.921 6.906c0.572 2.117 2.779 2.95 4.792 3.695 0.064 0.040 0.143 0.063 0.226 0.063 0.182 0 0.339-0.112 0.403-0.271l0.001-0.003c0.018-0.046 0.029-0.099 0.029-0.154 0-0.143-0.071-0.268-0.179-0.345l-0.001-0.001c-0.049-0.035-0.107-0.060-0.171-0.072l-0.003-0c-2.168-0.811-4.213-1.566-4.368-3.73-0.004-0.065-0.007-0.14-0.007-0.216 0-0.55 0.124-1.071 0.346-1.536l-0.009 0.022c0.263-0.555 0.643-1.016 1.11-1.367l0.009-0.007c0.302-0.247 0.626-0.467 0.969-0.656-0.011 0.122-0.017 0.264-0.017 0.407s0.006 0.285 0.018 0.425l-0.001-0.018c0.046 0.62 0.219 1.225 0.506 1.778 0.3 0.568 0.692 1.048 1.162 1.436l0.008 0.006c0.329 0.278 0.738 0.564 1.191 0.869 1.044 0.74 2.231 1.566 2.985 2.685 0.471 0.662 0.753 1.487 0.753 2.377 0 0.576-0.118 1.124-0.331 1.622l0.010-0.027h-1.755c-3.617 0-7.774-0.987-8.595-3.749-0.077-0.258-0.121-0.555-0.121-0.862 0-0.312 0.046-0.614 0.131-0.898l-0.006 0.022c0.176-0.589 0.5-1.088 0.93-1.472l0.003-0.003-0.020-0.019zM9.176 20.247l1.327 1.307-1.327 1.307-1.326-1.315 1.327-1.299zM12.218 23.679l-1.096 1.080-1.327-1.307 1.327-1.303 1.151 1.132-0.055 0.399zM9.176 26.677l-1.326-1.307 1.327-1.307 1.325 1.307-1.326 1.307zM8.569 23.46l-1.326 1.307-1.104-1.087-0.048-0.391 1.151-1.132 1.326 1.303zM6.632 25.37l-0.266 0.262-0.068-0.595 0.334 0.332zM6.493 26.708l0.75-0.74 1.457 1.449c0.008 0.029 0.016 0.058 0.027 0.086h-2.143l-0.091-0.795zM11.113 25.968l0.751 0.74-0.091 0.783h-2.203l1.545-1.522zM11.988 25.633l-0.266-0.263 0.337-0.332-0.071 0.595zM12.384 22.212l-0.663-0.666 0.841-0.83-0.179 1.495zM11.11 20.951l-1.259-1.236h2.517l-1.258 1.236zM7.239 20.951l-1.259-1.236h2.517l-1.258 1.236zM11.527 29.31h-4.706c-0.015-0.002-0.026-0.013-0.028-0.027l-0-0-0.111-0.939h4.987l-0.107 0.939c-0.001 0.008-0.005 0.015-0.011 0.020l-0 0c-0.006 0.005-0.013 0.008-0.021 0.008-0 0-0 0-0 0v0h-0.004zM15.167 15.676h-1.381c-0.012-0.001-0.026-0.002-0.041-0.002-0.112 0-0.215 0.042-0.292 0.112l0-0c-0.086 0.078-0.141 0.191-0.141 0.316 0 0.062 0.013 0.121 0.037 0.174l-0.001-0.003c0.050 0.11 0.143 0.194 0.256 0.232l0.003 0.001c0.041 0.014 0.087 0.022 0.136 0.022 0.015 0 0.030-0.001 0.044-0.002l-0.002 0h0.492v2.302c-0.002 0.015-0.015 0.027-0.031 0.027-0 0-0 0-0 0v0h-10.153c-0 0-0 0-0 0-0.016 0-0.029-0.012-0.031-0.027l-0-0v-2.302h7.864c0.111-0.010 0.209-0.061 0.279-0.137l0-0c0.069-0.075 0.112-0.176 0.112-0.287s-0.043-0.212-0.112-0.287l0 0c-0.071-0.076-0.168-0.127-0.277-0.138l-0.002-0h-8.735c-0.013 0.001-0.028 0.002-0.044 0.002-0.128 0-0.245-0.048-0.333-0.127l0 0c-0.098-0.089-0.16-0.217-0.16-0.359v-0c0 0 0-0 0-0 0-0.142 0.062-0.269 0.16-0.357l0-0c0.087-0.079 0.204-0.127 0.331-0.127 0.016 0 0.032 0.001 0.047 0.002l-0.002-0h0.901c0.111-0.011 0.208-0.062 0.278-0.138l0-0c0.069-0.075 0.112-0.176 0.112-0.287s-0.043-0.212-0.112-0.287l0 0c-0.071-0.076-0.168-0.127-0.277-0.137l-0.002-0h-0.792c-0.047-0.233-0.073-0.501-0.073-0.776 0-0.363 0.047-0.715 0.134-1.050l-0.006 0.029c0.161-0.619 0.441-1.158 0.817-1.615l-0.006 0.007c0.278 0.852 0.992 2.018 2.779 2.946 1.68 0.865 3.902 1.307 6.607 1.307h1.588c0.013-0.001 0.028-0.002 0.044-0.002 0.128 0 0.245 0.048 0.333 0.127l-0-0c0.098 0.089 0.16 0.217 0.16 0.359v0c0 0 0 0.001 0 0.001 0 0.142-0.062 0.269-0.16 0.357l-0 0c-0.087 0.079-0.203 0.127-0.331 0.127-0.016 0-0.032-0.001-0.047-0.002l0.002 0h0.027zM18.405 27.485l-0.317 0.486 0.007 0.004 0.311-0.49zM21.818 27.649l0.581-0.012-0.016-0.671-0.662 0.112 0.098 0.572zM21.858 29.435l0.148 0.562 0.443-0.117-0.010-0.457-0.581 0.012zM17.38 29.52l0.13-0.567h-0.004l-0.126 0.566zM15.17 28.534v0zM14.37 26.719l0.58 0.003v-0.003h-0.58zM14.647 25.45l-0.521-0.257v0.002l0.521 0.255zM16.427 23.931l0.207 0.543 0.002-0.001-0.208-0.542zM22.13 23.783l0.578 0.045 0.039-0.49-0.478-0.118-0.14 0.563zM21.988 25.603l-0.108 0.57 0.636 0.121 0.051-0.646-0.579-0.044zM20.441 24.859c-0.871 0-1.604 0.093-2.139 0.328-0.274 0.12-0.523 0.29-0.705 0.53-0.173 0.226-0.277 0.513-0.277 0.825 0 0.005 0 0.010 0 0.015v-0.001h1.161c0-0.068 0.016-0.106 0.041-0.138 0.030-0.039 0.098-0.102 0.247-0.168 0.312-0.137 0.849-0.23 1.67-0.23v-1.161zM17.321 26.555c0 0.597 0.268 1.090 0.769 1.416l0.633-0.973c-0.172-0.112-0.24-0.24-0.24-0.443h-1.161zM18.096 27.976c0.474 0.3 1.1 0.413 1.801 0.413v-1.161c-0.606 0-0.975-0.102-1.181-0.233l-0.62 0.98zM19.897 28.389c0.688 0 1.361-0.056 2.018-0.167l-0.194-1.145c-0.542 0.096-1.167 0.151-1.804 0.151-0.007 0-0.014 0-0.021-0h0.001v1.161zM21.238 27.662l0.039 1.786 1.161-0.026-0.040-1.786-1.161 0.026zM21.71 28.873c-0.663 0.175-1.395 0.265-2.199 0.265v1.161c0.89 0 1.722-0.099 2.494-0.303l-0.296-1.122zM19.512 29.138c-0.82 0-1.483-0.065-2.001-0.184l-0.261 1.132c0.631 0.145 1.389 0.213 2.262 0.213v-1.161zM17.507 28.953c-0.554-0.123-0.954-0.255-1.221-0.386l-0.51 1.043c0.383 0.187 0.882 0.343 1.477 0.476l0.253-1.133zM16.286 28.567c-0.283-0.137-0.526-0.295-0.747-0.481l0.005 0.004-0.751 0.885c0.29 0.246 0.619 0.457 0.983 0.634l0.509-1.043zM15.545 28.091c-0.395-0.334-0.597-0.77-0.593-1.368l-1.161-0.005c-0.005 0.913 0.326 1.686 1.005 2.259l0.749-0.887zM14.952 26.719c0-0.39 0.076-0.724 0.219-1.015l-1.043-0.51c-0.213 0.434-0.337 0.944-0.337 1.483 0 0.015 0 0.030 0 0.045l-0-0.002h1.161zM15.17 25.706c0.264-0.537 0.731-0.954 1.465-1.233l-0.412-1.085c-0.958 0.364-1.678 0.96-2.095 1.805l1.042 0.513zM16.637 24.473c0.772-0.297 1.634-0.45 2.591-0.45v-1.161c-1.083 0-2.087 0.172-3.008 0.526l0.417 1.084zM19.228 24.023c0.977 0 1.897 0.109 2.763 0.323l0.279-1.126c-0.895-0.227-1.923-0.358-2.981-0.358-0.021 0-0.043 0-0.064 0h0.003v1.161zM21.552 23.739l-0.141 1.819 1.157 0.091 0.141-1.82-1.157-0.090zM22.097 25.033c-0.494-0.104-1.065-0.167-1.649-0.175l-0.006-0v1.161c0.408 0 0.887 0.049 1.439 0.154l0.216-1.14zM27.76 25.96l-0.003 0.581 0.59 0.003-0.006-0.59-0.581 0.006zM27.511 25.206l-0.395 0.425 0.005 0.005 0.39-0.429zM26.066 25.263l0.402 0.419 0.004-0.005-0.406-0.414zM25.715 25.949l-0.573-0.094-0.111 0.67 0.68 0.004 0.003-0.581zM29.982 29.044l0.351 0.463 0.208-0.158 0.020-0.261-0.579-0.044zM28.73 29.509l-0.125-0.567-0.003 0.001 0.128 0.567zM24.376 29.349l-0.197 0.546 0.005 0.002 0.193-0.548zM23.385 28.823l-0.361 0.455 0.007 0.005 0.353-0.46zM22.722 27.989l-0.521 0.258 0.002 0.002 0.519-0.26zM23.401 24.469v0zM28.707 23.84l0.232-0.532-0.005-0.002-0.226 0.535zM30.039 25.065l-0.521 0.254 0.002 0.003 0.52-0.258zM30.266 26.079l0.579 0.042 0.002-0.021v-0.021h-0.581zM30.198 27.014l-0.003 0.581 0.542 0.002 0.039-0.541-0.578-0.042zM25.601 26.992l0.003-0.581-0.757-0.003 0.193 0.732 0.561-0.148zM26.259 27.803l-0.286 0.505 0.002 0.002 0.283-0.507zM29.784 27.604v-0.58h-0.116l-0.107 0.044 0.223 0.535zM30.090 27.604l0.579 0.044 0.047-0.624h-0.626v0.581zM28.341 25.954c-0.005-0.42-0.101-0.87-0.44-1.178l-0.78 0.86c-0.006-0.006 0.008 0.002 0.023 0.052 0.018 0.053 0.034 0.142 0.036 0.279l1.161-0.012zM27.906 24.78c-0.304-0.283-0.705-0.376-1.098-0.376v1.161c0.226 0 0.295 0.055 0.308 0.066l0.79-0.851zM26.808 24.404c-0.432 0-0.834 0.136-1.149 0.444l0.813 0.829c0.063-0.062 0.156-0.112 0.336-0.112v-1.161zM25.663 24.844c-0.272 0.263-0.46 0.611-0.521 1.001l-0.001 0.010 1.146 0.188c0.019-0.143 0.085-0.268 0.181-0.361l0-0-0.804-0.837zM25.711 26.53l2.046 0.011 0.006-1.161-2.046-0.012-0.006 1.161zM29.632 28.581c-0.127 0.096-0.438 0.23-1.027 0.36l0.25 1.134c0.613-0.135 1.137-0.311 1.478-0.57l-0.701-0.924zM28.602 28.942c-0.487 0.118-1.046 0.187-1.622 0.19h-0.002v1.161c0.613 0 1.241-0.074 1.879-0.219l-0.256-1.132zM26.978 29.132c-0.547 0-0.997-0.026-1.357-0.074l-0.155 1.15c0.427 0.058 0.933 0.085 1.512 0.085v-1.161zM25.622 29.058c-0.353-0.047-0.702-0.133-1.052-0.255l-0.386 1.095c0.421 0.148 0.85 0.253 1.283 0.311l0.155-1.15zM24.574 28.804c-0.32-0.112-0.597-0.262-0.845-0.448l0.008 0.006-0.706 0.921c0.33 0.254 0.716 0.456 1.147 0.612l0.396-1.091zM23.745 28.367c-0.211-0.171-0.381-0.384-0.499-0.626l-0.005-0.011-1.038 0.519c0.204 0.409 0.476 0.756 0.822 1.029l0.72-0.91zM23.241 27.732c-0.122-0.247-0.195-0.565-0.195-0.973h-1.161c0 0.545 0.098 1.047 0.315 1.488l1.040-0.515zM23.046 26.759c0-0.408 0.074-0.769 0.213-1.090l-1.065-0.462c-0.195 0.447-0.309 0.967-0.309 1.514 0 0.013 0 0.026 0 0.040l-0-0.002h1.161zM23.259 25.669c0.147-0.337 0.325-0.586 0.528-0.766l-0.773-0.867c-0.349 0.311-0.619 0.708-0.82 1.171l1.065 0.462zM23.788 24.902c0.624-0.556 1.576-0.878 2.946-0.878v-1.161c-1.538 0-2.808 0.361-3.719 1.173l0.773 0.866zM26.734 24.024c0.616 0 1.196 0.117 1.746 0.35l0.453-1.069c-0.643-0.28-1.391-0.443-2.178-0.443-0.008 0-0.015 0-0.023 0h0.001v1.161zM28.475 24.372c0.514 0.224 0.846 0.542 1.043 0.946l1.044-0.507c-0.332-0.684-0.888-1.182-1.622-1.503l-0.464 1.065zM29.519 25.321c0.108 0.219 0.166 0.468 0.166 0.757h1.161c0-0.451-0.094-0.878-0.287-1.271l-1.040 0.514zM29.687 26.037l-0.068 0.935 1.158 0.084 0.068-0.935-1.158-0.084zM30.201 26.434l-4.597-0.023-0.006 1.161 4.597 0.023 0.006-1.161zM25.040 27.14c0.136 0.514 0.468 0.905 0.933 1.168l0.571-1.011c-0.229-0.13-0.336-0.28-0.382-0.453l-1.122 0.296zM25.975 28.309c0.471 0.263 1.060 0.368 1.717 0.368v-1.161c-0.551 0-0.918-0.091-1.15-0.222l-0.567 1.014zM27.692 28.677c0.706 0 1.482-0.191 2.316-0.538l-0.446-1.072c-0.746 0.311-1.366 0.449-1.869 0.449v1.161zM29.783 28.184h0.307v-1.161h-0.306v1.161zM29.511 27.561l-0.108 1.44 1.158 0.086 0.108-1.439-1.158-0.087z"></path>
</symbol>
<symbol id="icon-github" viewBox="0 0 32 32">
<path fill="#f8d24e" style="fill: var(--color1, #f8d24e)" d="M32 16c0 8.837-7.163 16-16 16s-16-7.163-16-16c0-8.837 7.163-16 16-16s16 7.163 16 16z"></path>
<path fill="#fcfcfc" style="fill: var(--color3, #fcfcfc)" d="M16 6.588c-5.17 0-9.412 4.242-9.412 9.412 0 4.411 3.095 8.418 7.206 9.412v-3.114c-0.408 0.089-0.782 0.092-1.197-0.030-0.556-0.165-1.008-0.535-1.344-1.1-0.213-0.361-0.592-0.752-0.988-0.723l-0.097-1.1c0.855-0.072 1.595 0.522 2.034 1.26 0.195 0.327 0.42 0.52 0.707 0.605 0.279 0.082 0.578 0.042 0.926-0.080 0.088-0.698 0.407-0.96 0.649-1.327-2.452-0.366-3.429-1.667-3.816-2.693-0.514-1.363-0.239-3.066 0.67-4.142 0.018-0.021 0.050-0.076 0.037-0.114-0.416-1.259 0.091-2.3 0.11-2.41 0.48 0.142 0.559-0.143 2.088 0.786l0.265 0.159c0.11 0.066 0.076 0.028 0.186 0.020 0.59-0.167 1.269-0.268 1.97-0.279l0.006-0c0.717 0.011 1.404 0.114 2.058 0.299l-0.056-0.014 0.085 0.008c-0.007 0 0.024-0.005 0.075-0.036 1.911-1.157 1.842-0.779 2.355-0.945 0.018 0.11 0.52 1.168 0.107 2.41-0.055 0.172 1.657 1.74 0.708 4.256-0.388 1.027-1.365 2.328-3.816 2.693v0.001c0.314 0.479 0.691 0.734 0.69 1.722v3.887c4.11-0.994 7.205-5 7.205-9.412 0-5.17-4.242-9.412-9.411-9.412z"></path>
</symbol>
</defs>
</svg>
