<svg aria-hidden="true" style="position: absolute; width: 0; height: 0; overflow: hidden;" xmlns="http://www.w3.org/2000/svg" xmlns:xlink="http://www.w3.org/1999/xlink">
<defs>
    <symbol id="icon-telegram" viewBox="0 0 34 34">
        <path fill="#f8d24e" style="fill: var(--color1, #f8d24e)" d="M32.235 16c0 8.837-7.163 16-16 16s-16-7.163-16-16c0-8.837 7.163-16 16-16s16 7.163 16 16z"></path>
        <path d="M13.102 18.375l-0.317 4.17c0.454 0 0.65-0.183 0.887-0.401l2.13-1.9 4.415 3.017c0.81 0.42 1.38 0.199 1.598-0.695l2.898-12.673c0.258-1.118-0.432-1.554-1.22-1.28l-17.033 6.086c-1.163 0.42-1.145 1.026-0.198 1.3l4.355 1.264 10.114-5.907c0.476-0.294 0.91-0.131 0.553 0.163l-8.182 6.856z"></path>
    </symbol>
    <symbol id="icon-facebook" viewBox="0 0 34 34">
        <path fill="#f8d24e" style="fill: var(--color1, #f8d24e)" d="M16 32c8.837 0 16-7.163 16-16s-7.163-16-16-16-16 7.163-16 16 7.163 16 16 16z"></path>
        <path d="M20.446 15.981h-2.61v9.619h-3.956v-9.62h-1.88v-3.38h1.88v-2.187c0-1.565 0.74-4.014 3.99-4.014l2.93 0.012v3.281h-2.125c-0.35 0-0.84 0.176-0.84 0.922v1.99h2.956l-0.345 3.376z"></path>
    </symbol>
    <symbol id="icon-github" viewBox="0 0 34 34">
        <path fill="#f8d24e" style="fill: var(--color1, #f8d24e)" d="M32 16c0 8.837-7.163 16-16 16s-16-7.163-16-16c0-8.837 7.163-16 16-16s16 7.163 16 16z"></path>
        <path d="M16 6.588c-5.17 0-9.412 4.242-9.412 9.412 0 4.411 3.095 8.418 7.206 9.412v-3.114c-0.408 0.089-0.782 0.092-1.197-0.030-0.556-0.165-1.008-0.535-1.344-1.1-0.213-0.361-0.592-0.752-0.988-0.723l-0.097-1.1c0.855-0.072 1.595 0.522 2.034 1.26 0.195 0.327 0.42 0.52 0.707 0.605 0.279 0.082 0.578 0.042 0.926-0.080 0.088-0.698 0.407-0.96 0.649-1.327-2.452-0.366-3.429-1.667-3.816-2.693-0.514-1.363-0.239-3.066 0.67-4.142 0.018-0.021 0.050-0.076 0.037-0.114-0.416-1.259 0.091-2.3 0.11-2.41 0.48 0.142 0.559-0.143 2.088 0.786l0.265 0.159c0.11 0.066 0.076 0.028 0.186 0.020 0.59-0.167 1.269-0.268 1.97-0.279l0.006-0c0.717 0.011 1.404 0.114 2.058 0.299l-0.056-0.014 0.085 0.008c-0.007 0 0.024-0.005 0.075-0.036 1.911-1.157 1.842-0.779 2.355-0.945 0.018 0.11 0.52 1.168 0.107 2.41-0.055 0.172 1.657 1.74 0.708 4.256-0.388 1.027-1.365 2.328-3.816 2.693v0.001c0.314 0.479 0.691 0.734 0.69 1.722v3.887c4.11-0.994 7.205-5 7.205-9.412 0-5.17-4.242-9.412-9.411-9.412z"></path>
    </symbol>
    <symbol id="arrow-little" viewBox="0 0 12 12" width="12" height="12" fill="none">
        <path d="M4 2L8.95 6L4 10" stroke="#131313" stroke-width="2" stroke-linecap="round" stroke-linejoin="round"/>
    </symbol>
    <symbol id="arrow-button-default" viewBox="0 0 82 32">
        <path d="M81.414 17.414c0.362-0.362 0.586-0.862 0.586-1.414s-0.224-1.052-0.586-1.414l-12.728-12.728c-0.364-0.377-0.874-0.611-1.439-0.611-1.105 0-2 0.895-2 2 0 0.565 0.234 1.074 0.61 1.438l0.001 0.001 11.314 11.314-11.314 11.314c-0.347 0.359-0.561 0.849-0.561 1.389 0 1.105 0.895 2 2 2 0.54 0 1.030-0.214 1.39-0.562l-0.001 0.001 12.728-12.728zM0 18h80v-4h-80v4z"></path>
    </symbol>
    <symbol id="arrow-button-focus" viewBox="0 0 69 32">
        <path d="M68.080 17.413c0.361-0.362 0.585-0.861 0.585-1.413s-0.224-1.052-0.585-1.413l-12.727-12.729c-0.362-0.362-0.862-0.586-1.415-0.586-1.105 0-2.001 0.896-2.001 2.001 0 0.552 0.224 1.053 0.586 1.415l11.316 11.313-11.315 11.313c-0.362 0.362-0.586 0.862-0.586 1.415 0 1.105 0.896 2.001 2.001 2.001 0.552 0 1.053-0.224 1.415-0.586l12.728-12.728zM0 18h66.667v-4h-66.667v4z"></path>
    </symbol>
    <symbol id="arrow-button-hover" viewBox="0 0 102 32">
        <path d="M101.414 17.414c0.362-0.362 0.586-0.862 0.586-1.414s-0.224-1.052-0.586-1.414l-12.728-12.728c-0.364-0.377-0.874-0.611-1.439-0.611-1.105 0-2 0.895-2 2 0 0.565 0.234 1.074 0.61 1.438l0.001 0.001 11.314 11.314-11.314 11.314c-0.347 0.359-0.561 0.849-0.561 1.389 0 1.105 0.895 2 2 2 0.54 0 1.030-0.214 1.39-0.562l-0.001 0.001 12.728-12.728zM0 18h100v-4h-100v4z"></path>
    </symbol>
</defs>
</svg>
