<?xml version="1.0" standalone="no"?>
<!DOCTYPE svg PUBLIC "-//W3C//DTD SVG 20010904//EN"
 "http://www.w3.org/TR/2001/REC-SVG-20010904/DTD/svg10.dtd">
<svg version="1.0" xmlns="http://www.w3.org/2000/svg"
 width="260.000000pt" height="260.000000pt" viewBox="0 0 260.000000 260.000000"
 preserveAspectRatio="xMidYMid meet">
<metadata>
Created by potrace 1.14, written by Peter Selinger 2001-2017
</metadata>
<g transform="translate(0.000000,260.000000) scale(0.100000,-0.100000)"
fill="#000000" stroke="none">
<path d="M744 2187 c-4 -14 -8 -16 -14 -8 -5 10 -11 9 -22 -3 -9 -8 -18 -12
-22 -9 -3 4 -6 1 -6 -5 0 -7 -8 -12 -17 -12 -15 0 -16 -2 -3 -10 12 -8 11 -10
-7 -10 -12 0 -25 -5 -28 -10 -4 -6 -11 -8 -16 -5 -5 4 -6 -2 -2 -11 5 -14 3
-16 -11 -11 -10 4 -15 3 -11 -3 3 -6 -1 -13 -10 -16 -9 -4 -14 -13 -11 -21 3
-8 2 -12 -3 -9 -5 3 -12 -1 -15 -10 -3 -8 -11 -12 -17 -8 -8 4 -9 3 -5 -5 10
-15 -3 -53 -15 -45 -5 3 -8 2 -7 -3 1 -4 -3 -18 -10 -30 -11 -20 -10 -22 5
-17 13 4 10 -1 -7 -16 -14 -12 -19 -19 -12 -15 6 3 12 2 12 -2 0 -5 -6 -15
-12 -22 -10 -11 -10 -12 -1 -7 9 5 11 2 7 -8 -3 -9 -9 -15 -12 -14 -20 2 -25
-3 -12 -12 12 -8 11 -10 -7 -10 -16 0 -25 -8 -29 -25 -3 -14 -13 -25 -21 -25
-9 0 -13 -6 -9 -15 3 -8 0 -14 -7 -12 -7 1 -11 -4 -9 -12 2 -8 -3 -11 -12 -8
-10 4 -13 -1 -11 -19 1 -13 -2 -24 -7 -24 -5 0 -6 -4 -3 -10 3 -5 0 -10 -7
-10 -8 0 -9 -3 -3 -8 6 -4 9 -18 8 -32 -2 -14 -4 -31 -5 -37 -1 -7 -7 -13 -13
-13 -7 0 -18 -14 -25 -31 -8 -19 -18 -28 -27 -25 -8 3 -12 2 -8 -3 3 -5 -1
-12 -7 -14 -10 -4 -10 -6 -1 -6 17 -1 4 -31 -13 -31 -8 0 -14 -9 -14 -21 0
-11 -3 -18 -7 -16 -9 6 -11 -7 -14 -120 -2 -46 -7 -83 -12 -83 -4 0 -5 -4 -2
-10 3 -5 0 -7 -8 -4 -11 4 -15 -2 -15 -18 0 -27 -5 -49 -14 -64 -8 -12 42 -74
60 -74 7 0 12 -4 12 -10 0 -5 10 -10 21 -10 16 0 20 -5 16 -20 -3 -11 0 -20 6
-20 6 0 2 -7 -9 -16 -10 -8 -14 -13 -8 -10 7 3 15 -1 18 -10 3 -8 2 -12 -3 -9
-5 3 -12 1 -16 -5 -3 -5 -2 -10 3 -10 6 0 13 -7 16 -16 3 -8 2 -12 -4 -9 -6 3
-10 2 -10 -4 0 -5 4 -12 9 -15 4 -3 7 -17 6 -31 -2 -17 2 -25 12 -25 8 0 17
-9 20 -20 3 -11 10 -20 15 -20 5 0 6 6 2 13 -6 8 -3 8 9 -1 9 -8 21 -11 27 -7
5 3 10 0 10 -7 0 -9 3 -9 10 2 8 12 10 10 10 -8 0 -13 4 -21 9 -18 12 8 22
-20 15 -39 -4 -8 -11 -12 -18 -9 -6 3 -1 -3 12 -14 21 -19 31 -39 14 -28 -5 3
-9 -1 -9 -9 0 -8 4 -12 8 -10 4 3 6 -19 5 -49 0 -30 3 -52 8 -49 4 3 5 -4 1
-16 -4 -13 -1 -29 7 -38 11 -14 11 -16 -2 -8 -9 5 -7 0 4 -14 14 -15 15 -20 5
-16 -10 4 -15 -2 -16 -17 -2 -18 0 -20 7 -8 8 12 10 11 10 -7 0 -12 -5 -23
-12 -25 -7 -3 -5 -7 6 -11 10 -4 15 -3 11 3 -3 6 -1 10 4 10 16 0 13 -16 -5
-31 -14 -11 -13 -15 8 -32 13 -11 16 -17 7 -14 -9 3 -16 -1 -16 -9 0 -7 4 -11
9 -8 5 3 8 -7 8 -23 -1 -49 5 -98 12 -109 4 -6 4 -14 1 -18 -10 -10 -13 -37
-3 -31 10 6 20 -33 13 -51 -3 -8 -9 -11 -14 -8 -15 9 -10 -3 8 -17 11 -10 14
-10 9 -1 -4 6 -2 12 3 12 9 0 16 -36 12 -62 0 -4 117 -7 262 -7 175 -1 257 2
247 9 -10 6 -11 10 -2 10 6 0 12 7 12 16 0 8 4 13 8 10 4 -2 7 7 7 22 -1 15 3
35 8 46 6 13 6 16 -2 12 -6 -4 -11 -2 -11 3 0 6 5 11 11 11 8 0 8 4 0 14 -9
11 -8 17 3 29 11 11 12 17 3 27 -9 10 -9 11 2 5 10 -6 12 -2 6 14 -5 17 -3 20
12 15 10 -3 7 2 -7 10 -14 8 -19 15 -12 16 7 0 11 4 7 9 -3 5 -1 12 4 16 5 3
8 14 6 25 -3 14 2 20 13 20 11 0 13 3 6 8 -13 8 -15 84 -2 76 4 -3 6 1 3 8
-12 33 -13 68 -3 62 7 -5 9 0 6 14 -4 12 -2 20 3 16 5 -3 9 0 9 5 0 6 -5 11
-11 11 -5 0 -7 5 -4 10 4 6 10 8 15 5 5 -3 12 0 16 6 4 7 3 9 -3 6 -6 -4 -13
5 -15 22 -3 19 0 27 7 25 7 -3 12 2 12 10 0 8 -3 13 -7 11 -4 -2 -7 2 -7 10 0
8 4 12 9 9 4 -3 6 5 4 18 -1 13 0 35 5 50 6 22 5 26 -9 20 -12 -4 -10 3 8 25
24 31 49 46 34 21 -6 -9 -3 -9 9 1 9 7 24 11 32 7 10 -3 13 -2 10 5 -4 6 1 9
11 7 12 -2 18 2 16 11 -2 9 3 11 13 7 13 -5 14 -2 4 15 -9 17 -8 20 2 14 8 -6
11 -4 6 7 -3 9 0 21 6 28 8 9 9 11 1 7 -7 -4 -14 2 -17 13 -3 11 -1 20 4 20 5
0 8 22 6 49 -4 44 -2 49 15 46 10 -2 16 0 13 5 -3 4 9 13 25 19 17 5 29 16 28
23 -2 7 4 13 13 12 9 -1 16 5 16 12 0 7 -3 11 -7 9 -3 -2 -6 5 -6 15 0 10 5
16 11 14 6 -3 11 5 12 17 1 14 -3 19 -13 15 -11 -4 -12 -2 -4 14 7 13 7 21 -2
26 -7 5 -8 3 -3 -6 5 -9 4 -11 -4 -6 -6 4 -10 20 -9 36 1 16 5 27 9 25 3 -3
12 8 18 23 9 19 10 27 1 30 -8 3 -7 9 2 20 11 14 10 15 -7 9 -17 -6 -17 -4 4
13 21 18 17 25 -11 21 -4 0 -5 6 -2 14 4 8 10 13 14 10 5 -3 12 0 16 7 4 7 4
10 -1 6 -13 -12 -33 11 -28 32 3 13 0 20 -8 20 -11 0 -11 2 1 10 10 6 11 10 3
10 -7 0 -13 12 -13 26 0 20 -4 25 -16 20 -8 -3 -12 -2 -9 3 3 5 1 12 -5 16 -6
4 -8 11 -5 16 4 5 1 9 -5 9 -7 0 -9 7 -6 17 4 10 4 14 0 10 -4 -4 -17 4 -29
18 -13 13 -26 21 -29 17 -4 -3 -4 2 0 13 4 11 4 17 0 13 -5 -4 -19 4 -33 18
-13 13 -30 21 -36 18 -7 -4 -9 -4 -5 1 7 7 -14 35 -26 35 -3 0 -15 9 -26 20
-11 11 -27 20 -35 20 -8 0 -15 5 -15 11 0 5 -5 7 -12 3 -6 -4 -8 -3 -5 3 4 6
0 16 -8 23 -12 10 -15 10 -15 -1 0 -12 -2 -12 -9 0 -5 7 -14 10 -20 7 -6 -4
-11 -2 -11 3 0 6 5 11 12 11 28 0 -10 16 -47 19 -5 1 -3 6 5 11 13 8 12 10 -2
10 -10 0 -18 4 -18 9 0 5 -9 11 -20 14 -14 4 -18 10 -13 23 4 11 3 15 -5 10
-12 -7 -25 9 -29 39 -2 11 -10 23 -18 28 -8 4 -12 14 -9 22 4 8 2 15 -4 15 -5
0 -13 7 -16 16 -3 8 -2 12 3 9 5 -3 12 -1 16 5 3 5 1 10 -4 10 -6 0 -10 16 -8
35 1 26 6 34 17 30 9 -3 7 1 -4 10 -14 11 -16 15 -5 15 11 0 12 2 1 9 -8 4
-13 11 -13 15 3 19 -3 23 -39 22 -30 0 -41 -5 -46 -19z m5 -114 c-6 -7 -8 -13
-3 -13 5 0 3 -4 -5 -9 -11 -7 -9 -10 9 -16 15 -5 19 -10 11 -15 -10 -5 -9 -11
3 -22 8 -9 12 -18 9 -22 -3 -3 0 -13 8 -23 12 -15 12 -16 -1 -8 -13 8 -13 7 0
-11 8 -10 21 -23 28 -27 7 -5 10 -12 7 -18 -4 -5 -1 -9 5 -9 6 0 8 -4 5 -10
-3 -5 -1 -10 5 -10 7 0 23 -9 37 -20 14 -11 21 -20 16 -20 -5 0 -15 6 -23 13
-12 10 -12 9 -1 -5 7 -10 20 -18 27 -18 8 0 14 -5 14 -10 0 -6 8 -10 17 -8 10
2 22 -7 30 -22 8 -17 19 -24 34 -22 13 2 19 0 15 -7 -4 -7 1 -11 12 -11 11 0
22 -9 25 -20 3 -13 11 -18 26 -15 12 2 19 0 16 -6 -4 -5 -1 -9 5 -9 6 0 9 -4
6 -9 -4 -5 4 -7 16 -3 14 3 19 2 14 -6 -4 -7 -1 -12 8 -12 9 0 16 -4 16 -10 0
-5 8 -10 17 -10 9 0 13 -3 10 -7 -4 -3 5 -16 18 -29 14 -13 25 -29 25 -36 0
-9 3 -9 11 2 9 12 10 11 6 -7 -3 -12 -2 -22 2 -21 19 2 29 -4 34 -22 3 -11 1
-18 -4 -14 -5 3 -6 -2 -3 -10 3 -9 9 -15 12 -14 20 2 25 -3 12 -12 -13 -8 -12
-10 3 -10 9 0 17 -5 17 -11 0 -5 -5 -7 -12 -3 -7 5 -8 3 -2 -7 11 -18 11 -41
0 -57 -6 -9 -4 -11 8 -6 14 5 15 3 6 -20 -5 -14 -7 -33 -3 -43 5 -12 3 -14 -7
-8 -9 5 -11 4 -6 -4 4 -6 -1 -19 -10 -28 -14 -15 -38 -18 -138 -19 -67 0 -129
4 -138 8 -12 6 -18 5 -18 -4 0 -9 -3 -9 -10 2 -5 8 -10 11 -10 5 0 -5 -4 -3
-10 5 -8 12 -10 12 -16 -3 -6 -17 -7 -17 -19 0 -14 19 -68 27 -59 9 2 -6 -1
-3 -8 6 -11 15 -13 15 -25 0 -11 -14 -13 -14 -11 -2 2 8 -3 14 -11 12 -7 -1
-20 3 -29 10 -10 8 -13 9 -9 1 5 -7 0 -9 -13 -6 -11 3 -18 8 -16 12 2 3 -10 7
-27 8 -17 1 -33 6 -36 11 -3 5 -14 8 -23 6 -11 -1 -18 4 -18 14 0 15 -2 15
-10 2 -8 -13 -10 -13 -10 2 0 9 -5 20 -12 24 -7 5 -8 3 -3 -7 5 -8 -8 -1 -30
15 -21 16 -35 24 -30 16 6 -9 4 -11 -4 -6 -7 5 -10 14 -7 22 3 9 0 11 -11 7
-11 -4 -14 -2 -9 5 4 7 1 12 -9 12 -9 0 -13 5 -10 10 3 6 -1 10 -9 10 -8 0
-18 5 -22 12 -4 6 -3 8 4 5 6 -5 6 2 -1 18 -7 14 -15 25 -19 25 -13 0 -9 28 5
34 6 4 2 4 -10 2 -15 -3 -20 0 -16 10 3 8 8 12 12 9 10 -5 7 26 -3 43 -4 6 -2
12 3 12 6 0 11 5 11 11 0 5 -4 8 -8 5 -5 -3 -9 1 -9 9 0 8 4 12 8 10 9 -6 21
24 14 35 -3 4 3 14 12 21 14 12 16 12 8 0 -6 -10 -4 -12 4 -7 7 5 10 15 6 24
-3 9 -3 13 1 9 4 -4 14 -1 22 6 13 9 14 9 8 0 -4 -7 -4 -13 1 -13 12 0 33 -51
26 -64 -4 -6 1 -5 10 3 9 7 17 12 18 10 0 -2 2 -12 4 -23 2 -10 9 -24 16 -30
9 -8 10 -8 5 1 -5 9 -2 11 8 7 9 -3 14 -9 12 -13 -8 -13 21 -31 50 -31 13 0
14 -3 5 -14 -10 -12 -8 -13 8 -9 13 3 21 1 21 -8 0 -7 3 -9 7 -6 3 4 12 2 20
-4 7 -6 13 -8 13 -3 0 4 7 -1 16 -12 8 -10 13 -13 9 -7 -4 9 -1 11 9 7 9 -3
13 -11 9 -18 -4 -6 1 -5 10 3 13 10 17 10 17 1 0 -7 7 -10 15 -6 10 3 15 -1
15 -12 0 -15 2 -15 10 -2 8 12 10 12 10 1 0 -8 7 -11 20 -8 11 3 18 1 14 -4
-3 -5 -2 -9 3 -10 4 0 18 -2 31 -3 25 -3 49 18 32 29 -5 3 -10 11 -10 16 0 6
6 7 13 3 9 -6 9 -5 0 8 -7 8 -11 17 -8 20 3 2 -2 5 -10 5 -8 0 -12 -5 -9 -11
3 -6 -2 -2 -10 8 -12 15 -16 16 -17 5 0 -10 -2 -10 -6 -1 -2 6 -13 12 -23 12
-10 0 -21 7 -24 16 -3 8 -10 13 -15 9 -5 -3 -12 -1 -15 3 -3 5 -19 9 -36 10
-20 0 -40 10 -55 26 -24 26 -42 35 -30 16 3 -6 -1 -7 -9 -4 -9 3 -16 13 -16
21 0 8 -5 11 -12 7 -7 -5 -9 -2 -5 8 4 12 1 14 -15 10 -13 -3 -19 -1 -15 5 4
6 -6 24 -22 41 -21 21 -29 39 -27 60 1 17 -1 29 -5 27 -7 -5 -1 82 8 105 4 8
5 19 4 24 -1 5 5 6 13 3 20 -8 28 3 15 20 -9 9 -8 13 0 13 6 0 11 8 11 17 0 9
3 13 7 10 3 -4 12 2 20 13 15 21 39 29 27 8 -5 -7 -3 -8 5 -3 9 5 10 10 2 18
-8 8 -2 14 22 22 46 15 59 15 46 -2z m201 -577 c0 -3 -4 -8 -10 -11 -5 -3 -10
-1 -10 4 0 6 5 11 10 11 6 0 10 -2 10 -4z m-589 -46 c6 0 7 4 4 10 -3 6 1 7
10 4 13 -5 13 -9 3 -22 -10 -12 -10 -14 0 -8 7 4 12 2 12 -8 0 -20 29 -48 42
-40 7 4 8 2 4 -4 -4 -7 -2 -12 4 -12 6 0 8 -4 5 -10 -6 -9 7 -14 27 -11 4 0 4
-7 1 -16 -5 -12 -2 -15 10 -10 10 4 17 2 17 -4 0 -6 7 -8 16 -5 10 4 13 2 8
-6 -5 -8 -2 -9 11 -4 15 5 16 4 5 -9 -7 -9 -9 -15 -4 -14 17 4 64 -13 64 -23
0 -6 7 -5 16 2 12 11 15 11 12 0 -2 -8 3 -15 10 -16 6 -1 14 -3 17 -4 9 -4 25
-7 46 -9 11 0 17 -5 14 -11 -9 -14 8 -12 24 3 8 7 11 7 8 1 -4 -7 3 -15 16
-19 38 -12 57 -12 57 -1 0 8 2 8 8 0 11 -16 42 -25 42 -12 0 6 5 7 13 2 6 -5
31 -9 55 -8 23 0 42 -3 42 -7 0 -5 7 -5 17 -2 12 5 14 3 8 -7 -5 -8 -4 -11 3
-6 5 3 13 0 16 -6 4 -7 5 -4 2 8 -2 12 2 21 10 21 7 0 11 -4 8 -9 -3 -4 4 -8
15 -8 10 0 22 -6 24 -12 3 -7 6 -4 6 6 1 19 2 19 14 2 11 -16 17 -17 33 -7 18
11 17 12 -3 6 -13 -4 -23 -2 -23 3 0 4 13 8 29 8 18 0 27 -4 25 -11 -3 -6 2
-12 10 -12 8 0 13 4 10 9 -8 13 20 9 35 -4 11 -11 12 -10 6 1 -6 11 -4 13 8 8
10 -3 17 -2 17 4 0 6 5 7 10 4 6 -4 8 -11 5 -16 -3 -5 1 -6 9 -3 21 8 21 -22
1 -42 -14 -15 -20 -11 -15 11 1 6 -4 4 -11 -2 -7 -7 -19 -13 -27 -13 -8 0 -10
5 -6 13 5 9 4 9 -6 0 -11 -10 -17 -10 -29 0 -12 10 -14 9 -9 -4 4 -9 1 -16 -8
-16 -7 0 -10 5 -7 10 3 5 0 8 -8 5 -26 -9 -32 -92 -6 -89 4 1 17 1 28 1 19 0
20 -2 8 -17 -10 -11 -10 -14 -1 -9 7 4 12 1 12 -9 0 -9 -4 -13 -10 -10 -6 4
-7 -1 -3 -11 5 -13 3 -15 -7 -9 -9 5 -11 4 -6 -4 6 -9 11 -9 24 1 14 12 14 10
3 -10 -12 -23 -22 -55 -23 -79 -2 -18 -15 -16 -27 5 -6 9 -11 12 -11 5 0 -7
-9 -10 -21 -8 -16 3 -19 0 -14 -12 5 -14 2 -13 -16 3 -12 10 -19 14 -16 7 4
-6 3 -14 -3 -18 -5 -3 -10 -1 -10 4 0 6 -13 11 -28 11 -15 0 -34 6 -42 13 -12
10 -12 9 -1 -5 7 -10 11 -18 8 -18 -3 0 -14 -3 -24 -6 -15 -5 -15 -4 -3 5 12
9 10 11 -10 11 -15 0 -32 -6 -39 -12 -11 -11 -13 -10 -8 3 4 12 -2 15 -24 15
-22 0 -28 -3 -24 -15 4 -11 0 -9 -16 5 -12 10 -19 13 -15 7 4 -7 4 -14 -1 -14
-34 -6 -52 -5 -48 1 3 4 -2 11 -11 14 -12 5 -15 2 -10 -11 6 -14 4 -14 -15 3
-17 14 -21 15 -17 4 4 -11 0 -16 -13 -16 -11 0 -19 4 -19 8 0 4 6 8 13 8 8 0
7 3 -3 9 -19 13 -33 3 -25 -17 4 -12 1 -12 -16 4 -22 19 -22 19 -16 -1 6 -17
4 -17 -13 4 -11 13 -20 19 -20 14 0 -5 -20 -9 -44 -9 -26 0 -42 4 -39 9 4 6 1
7 -6 3 -7 -5 -10 -15 -6 -24 5 -14 4 -14 -12 0 -24 20 -56 20 -48 -1 4 -11 0
-10 -16 5 -12 10 -19 14 -16 7 4 -6 3 -14 -3 -18 -5 -3 -10 -1 -10 6 0 6 -8 9
-20 6 -10 -3 -24 1 -31 9 -6 8 -8 14 -5 14 4 0 2 9 -4 20 -6 11 -7 20 -2 20
10 0 8 62 -3 80 -5 8 -4 11 2 7 6 -4 13 -1 16 6 3 9 72 12 303 11 197 0 304 3
313 10 11 8 13 8 7 -1 -5 -9 -2 -11 8 -7 9 3 14 9 11 14 -2 4 7 6 20 4 14 -1
23 2 19 7 -3 5 -10 7 -15 4 -5 -3 -6 1 -2 11 5 13 2 15 -18 10 -13 -3 -18 -3
-11 0 6 3 12 13 12 22 0 12 -3 13 -8 5 -5 -8 -13 -9 -22 -3 -18 12 -33 13 -26
2 4 -6 -13 -7 -57 -3 -5 1 -5 7 -1 14 5 8 2 8 -9 -2 -12 -9 -17 -10 -17 -2 0
7 -5 9 -10 6 -6 -4 -8 -10 -6 -14 7 -11 -53 -4 -68 9 -11 8 -16 8 -22 -1 -5
-8 -3 -9 6 -4 9 5 11 4 6 -3 -10 -17 -26 -15 -26 4 0 8 -5 12 -10 9 -6 -4 -8
-10 -5 -15 3 -5 -4 -7 -16 -5 -13 3 -26 10 -31 17 -6 10 -8 10 -8 1 0 -7 -7
-13 -16 -13 -8 0 -12 4 -9 10 3 6 -1 7 -9 4 -9 -3 -13 -10 -10 -15 8 -14 -3
-10 -20 7 -9 8 -16 11 -16 5 0 -6 -7 -11 -16 -11 -9 0 -12 5 -8 13 5 8 2 8 -9
-2 -14 -11 -17 -11 -17 0 0 11 -2 11 -8 2 -11 -18 -92 -23 -85 -6 4 9 0 11
-11 7 -9 -3 -14 -9 -12 -13 2 -3 -9 -6 -24 -6 -15 0 -26 3 -24 7 2 4 0 9 -6
13 -5 3 -10 -1 -10 -9 0 -8 -8 -14 -19 -13 -11 0 -17 5 -15 9 3 4 1 8 -5 8 -5
0 -14 -7 -19 -16 -8 -15 -10 -15 -15 0 -5 11 -3 15 5 10 7 -4 8 -3 4 5 -6 9
-11 9 -22 0 -11 -9 -14 -8 -15 7 0 18 -1 18 -9 -1 -8 -19 -9 -19 -9 3 -1 15
-5 21 -13 16 -7 -4 -8 -3 -4 5 4 6 12 9 17 6 5 -4 9 -1 9 5 0 6 5 8 10 5 6 -3
10 -1 10 5 0 7 6 8 19 0 25 -13 34 -13 25 1 -4 7 1 7 16 -1 12 -7 20 -8 16 -2
-3 5 1 15 9 22 13 11 14 10 9 -4 -3 -9 -2 -16 3 -16 14 0 15 58 1 67 -7 4 -23
8 -35 9 -46 2 -94 54 -50 54 8 0 8 -3 -1 -9 -11 -7 -11 -9 1 -14 16 -6 17 9 4
30 -13 20 -17 54 -6 48 5 -4 6 -12 3 -18 -4 -7 -3 -9 1 -4 11 10 14 48 3 41
-13 -9 -9 4 8 20 8 9 11 16 5 16 -6 0 -11 5 -11 11 0 5 5 7 10 4 6 -3 10 -1
10 5 0 6 5 8 13 4 7 -5 6 0 -3 11 -9 11 -10 16 -2 11 7 -4 12 -2 13 6 0 10 2
10 6 1 2 -7 9 -13 14 -13z m1012 -165 c-3 -9 -8 -14 -10 -11 -3 3 -2 9 2 15 9
16 15 13 8 -4z m-468 -25 c3 -5 1 -10 -4 -10 -6 0 -11 5 -11 10 0 6 2 10 4 10
3 0 8 -4 11 -10z m295 -340 c0 -5 -5 -10 -11 -10 -5 0 -7 5 -4 10 3 6 8 10 11
10 2 0 4 -4 4 -10z m-630 -65 c0 -2 -9 -3 -19 -2 -11 0 -18 5 -15 9 4 6 34 0
34 -7z m320 11 c0 -3 -4 -8 -10 -11 -5 -3 -10 -1 -10 4 0 6 5 11 10 11 6 0 10
-2 10 -4z m-329 -96 c6 0 7 5 3 12 -5 8 -2 9 9 5 10 -3 17 -3 17 1 0 4 11 8
25 8 16 1 22 -2 18 -10 -5 -7 -2 -7 8 1 9 7 20 8 28 3 12 -7 9 -14 -11 -39
-14 -16 -28 -28 -30 -26 -2 3 -19 5 -36 7 -21 1 -31 7 -28 14 5 12 -21 29 -38
25 -5 -1 -3 6 5 15 13 16 14 16 17 1 2 -10 8 -17 13 -17z m335 18 c-9 15 -5
15 28 2 14 -5 26 -6 26 -1 0 14 42 5 52 -12 7 -13 5 -15 -7 -11 -8 3 -12 11
-8 17 3 5 1 7 -5 4 -5 -4 -8 -17 -5 -30 3 -12 2 -19 -2 -15 -4 4 -16 -3 -27
-15 -11 -12 -16 -16 -13 -9 5 10 1 13 -16 10 -19 -2 -24 1 -23 18 0 13 -4 20
-12 17 -6 -2 -15 0 -19 6 -3 6 -1 11 5 11 6 0 8 5 4 13 -5 7 0 6 11 -3 11 -9
16 -10 11 -2z m-131 -48 c-3 -5 -1 -10 5 -10 19 0 71 -41 65 -51 -4 -5 2 -6
11 -2 11 4 15 3 10 -5 -3 -6 -2 -13 4 -17 6 -4 8 -11 4 -16 -3 -5 -10 -7 -15
-4 -5 4 -12 -1 -15 -10 -4 -9 -12 -14 -20 -11 -8 3 -11 -2 -9 -16 3 -11 2 -18
-2 -14 -3 3 -13 0 -21 -7 -13 -10 -14 -9 -7 3 6 12 5 13 -6 3 -18 -18 -32 -16
-25 3 4 12 2 15 -9 10 -8 -3 -14 -2 -12 2 3 9 -29 53 -34 47 -3 -2 -5 5 -6 15
-1 11 3 20 8 20 6 0 7 -5 3 -12 -4 -7 -3 -8 4 -4 6 4 8 14 5 24 -3 9 -3 14 2
10 4 -4 18 6 32 23 24 28 41 40 28 19z m250 -50 c-3 -5 -2 -10 3 -10 5 0 12
-9 15 -20 5 -21 -1 -24 -27 -14 -9 3 -13 10 -10 15 3 5 11 6 17 2 8 -5 8 -2 0
9 -7 8 -10 18 -6 21 10 10 15 8 8 -3z m-310 -70 c3 -5 1 -10 -4 -10 -6 0 -11
5 -11 10 0 6 2 10 4 10 3 0 8 -4 11 -10z m-74 -31 c13 -6 18 -16 15 -26 -6
-14 -4 -14 11 -2 11 9 14 10 9 2 -4 -8 -1 -13 9 -13 9 0 13 -4 10 -10 -3 -5
-1 -10 6 -10 7 0 9 -3 6 -7 -4 -3 -2 -12 5 -20 8 -11 7 -12 -6 -7 -11 4 -16 2
-14 -6 2 -7 -3 -15 -11 -18 -9 -3 -11 0 -6 9 5 8 4 11 -1 6 -5 -5 -10 -13 -10
-18 -1 -5 -2 -13 -3 -18 -1 -8 -53 -8 -71 -1 -3 1 -8 2 -12 1 -4 0 -5 6 -1 15
3 9 0 14 -8 12 -7 -2 -13 2 -14 9 0 6 -4 15 -9 20 -5 5 -6 3 -2 -4 4 -7 2 -13
-3 -13 -14 0 -14 17 -1 25 6 3 10 15 10 26 0 10 4 19 10 19 5 0 7 -8 4 -17 -4
-13 -2 -13 7 2 14 24 40 55 46 55 2 0 13 -5 24 -11z m342 -32 c-3 -5 -2 -7 3
-4 6 3 16 2 24 -4 13 -7 13 -9 0 -9 -13 0 -13 -2 -1 -9 29 -18 20 -47 -12 -42
-4 0 -6 -5 -5 -11 2 -7 -2 -12 -9 -11 -8 2 -10 -4 -6 -14 5 -12 2 -15 -10 -10
-10 4 -17 1 -17 -6 0 -8 -3 -8 -9 2 -5 8 -14 10 -22 6 -9 -6 -11 -3 -5 10 6
16 4 16 -11 4 -10 -7 -15 -10 -11 -5 10 12 -20 39 -33 30 -8 -4 -9 -3 -5 4 4
7 1 12 -6 12 -9 0 -10 3 -2 8 6 4 10 15 9 24 -2 10 2 15 10 12 7 -3 15 2 19
11 3 9 10 13 16 10 5 -3 10 -1 10 5 0 6 10 15 23 19 24 10 61 -14 50 -32z
m-183 -118 c0 -5 6 -9 13 -9 7 0 18 -9 25 -20 7 -12 18 -18 25 -14 7 4 9 4 5
-1 -4 -4 -3 -14 3 -22 11 -12 9 -14 -7 -12 -3 0 -23 -18 -45 -40 -21 -23 -39
-37 -39 -31 0 5 -7 6 -17 3 -12 -5 -14 -3 -8 7 6 10 4 12 -8 7 -11 -4 -14 -2
-10 9 3 9 0 14 -8 12 -8 -2 -13 3 -11 10 1 6 -2 12 -7 12 -5 0 -11 9 -14 20
-3 13 0 20 10 20 8 0 11 5 7 12 -5 7 -2 9 9 5 12 -4 14 -2 10 10 -5 12 -2 15
10 10 9 -3 21 1 29 11 12 16 11 16 -7 2 -18 -14 -19 -14 -7 2 13 17 42 14 42
-3z m-160 -9 c0 -5 -5 -10 -11 -10 -5 0 -7 5 -4 10 3 6 8 10 11 10 2 0 4 -4 4
-10z m5 -141 c-4 -5 -1 -9 5 -9 7 0 9 -7 6 -16 -5 -14 -4 -15 9 -4 8 7 15 8
15 4 0 -5 12 -18 28 -28 15 -9 19 -15 10 -12 -12 3 -18 0 -18 -10 0 -12 -4
-12 -20 -4 -15 8 -20 8 -20 -1 0 -8 -5 -7 -17 2 -14 12 -15 12 -9 1 7 -11 4
-12 -13 -3 -16 9 -21 9 -22 -1 0 -9 -2 -10 -5 -1 -3 7 -13 9 -22 6 -13 -4 -14
-3 -4 5 14 10 13 43 -2 53 -5 4 1 10 13 14 13 4 29 1 38 -7 12 -9 15 -9 9 0
-4 7 -2 12 4 12 6 0 8 5 4 12 -4 7 -3 8 5 4 6 -4 9 -12 6 -17z m299 9 c-5 -8
-2 -9 11 -4 15 5 16 4 5 -9 -11 -13 -10 -14 4 -9 22 8 39 -35 22 -54 -14 -14
-87 -19 -107 -7 -8 5 -10 4 -5 -3 4 -7 2 -12 -3 -12 -6 0 -11 5 -11 11 0 5 -4
8 -8 5 -5 -3 -9 1 -9 9 0 7 8 12 18 10 13 -3 17 2 14 16 -2 11 0 17 6 14 5 -4
9 -1 9 5 0 6 4 9 8 6 5 -3 15 4 22 15 15 20 36 27 24 7z m-321 -181 c-4 -6 -1
-7 6 -3 7 5 10 15 7 25 -4 9 2 5 13 -9 16 -21 19 -22 18 -6 -1 13 5 19 20 21
12 1 20 -2 18 -6 -10 -14 25 -18 51 -4 28 14 71 6 67 -13 -4 -17 26 -7 40 13
13 17 15 17 37 -5 l23 -23 -6 22 c-6 22 -5 23 15 4 12 -10 19 -13 15 -7 -3 6
0 11 8 11 10 0 11 -6 5 -23 -8 -19 -6 -22 8 -18 9 3 4 -2 -11 -11 -21 -12 -32
-14 -42 -5 -8 7 -15 7 -19 1 -7 -10 -37 -7 -58 5 -7 4 -8 3 -4 -4 8 -13 -20
-12 -41 1 -6 4 -14 1 -17 -5 -5 -10 -7 -10 -12 0 -3 6 -10 12 -15 12 -6 0 -8
-4 -5 -8 2 -4 -4 -8 -14 -8 -10 0 -17 3 -15 6 2 4 -2 7 -10 7 -8 0 -12 -4 -9
-9 3 -4 0 -8 -5 -8 -6 0 -11 6 -11 13 0 9 -3 8 -9 -2 -6 -9 -10 -10 -16 -2 -5
9 -10 9 -21 0 -10 -8 -14 -8 -14 0 0 6 -3 10 -7 10 -5 -1 -17 -1 -28 1 l-20 1
20 9 c11 5 14 9 8 9 -7 1 -13 6 -13 12 0 6 7 8 16 5 12 -5 15 -2 10 10 -5 14
-4 15 9 4 8 -7 12 -17 8 -23z m225 8 c-3 -3 -9 2 -12 12 -6 14 -5 15 5 6 7 -7
10 -15 7 -18z"/>
<path d="M916 1782 c-3 -5 1 -9 9 -9 8 0 12 4 9 9 -3 4 -7 8 -9 8 -2 0 -6 -4
-9 -8z"/>
<path d="M590 1760 c6 -11 13 -20 16 -20 2 0 0 9 -6 20 -6 11 -13 20 -16 20
-2 0 0 -9 6 -20z"/>
<path d="M946 1172 c-3 -5 1 -9 9 -9 8 0 12 4 9 9 -3 4 -7 8 -9 8 -2 0 -6 -4
-9 -8z"/>
<path d="M1106 1047 c3 -10 9 -15 12 -12 3 3 0 11 -7 18 -10 9 -11 8 -5 -6z"/>
<path d="M797 883 c-10 -9 -9 -23 1 -23 5 0 9 7 9 15 0 17 -1 18 -10 8z"/>
<path d="M653 783 c4 -3 -1 -16 -10 -27 -18 -21 -18 -21 4 -2 20 16 23 36 6
36 -4 0 -3 -3 0 -7z"/>
<path d="M739 713 c-13 -16 -12 -17 4 -4 16 13 21 21 13 21 -2 0 -10 -8 -17
-17z"/>
<path d="M600 580 c-9 -6 -10 -10 -3 -10 6 0 15 5 18 10 8 12 4 12 -15 0z"/>
<path d="M760 130 c-9 -6 -10 -10 -3 -10 6 0 15 5 18 10 8 12 4 12 -15 0z"/>
<path d="M1505 593 c2 -10 4 -22 4 -27 1 -5 10 -1 21 9 11 10 20 13 20 7 0 -7
-5 -12 -11 -12 -5 0 -8 -4 -5 -9 11 -18 -27 -4 -40 14 -8 11 -14 13 -14 6 0
-7 -5 -9 -10 -6 -6 4 -7 12 -3 18 4 7 -2 5 -13 -3 -29 -22 -30 -24 -11 -17 10
4 16 3 12 -3 -3 -5 -19 -7 -34 -4 -16 4 -32 1 -35 -5 -5 -8 -13 -8 -27 -1 -13
8 -19 7 -19 0 0 -6 -4 -9 -10 -5 -5 3 -19 -4 -30 -15 -11 -11 -25 -18 -30 -15
-6 4 -13 -1 -16 -10 -5 -13 -9 -13 -22 -3 -13 11 -14 10 -4 -9 10 -18 9 -21
-6 -19 -20 3 -52 -14 -52 -28 0 -6 5 -5 12 2 7 7 17 12 22 12 13 0 -35 -35
-49 -35 -5 -1 -9 -7 -7 -14 1 -7 -3 -20 -10 -29 -7 -8 -13 -25 -13 -36 -1 -12
-4 -27 -8 -33 -5 -8 -3 -13 4 -13 8 0 8 -4 -1 -15 -8 -9 -21 -13 -34 -10 -17
5 -18 4 -6 -4 8 -6 23 -8 33 -5 19 6 20 -15 2 -28 -6 -5 -4 -8 5 -8 13 0 13
-1 0 -10 -12 -7 -12 -10 -1 -10 8 0 11 -6 7 -15 -4 -10 3 -19 19 -27 13 -6 27
-18 30 -26 5 -12 1 -12 -15 3 -28 26 -25 11 4 -18 19 -19 27 -22 37 -13 9 8
10 8 5 -1 -5 -8 -1 -13 10 -13 11 0 15 -6 12 -18 -5 -16 1 -19 37 -18 30 1 41
-3 38 -11 -3 -8 3 -13 17 -13 11 0 19 -4 16 -9 -7 -10 20 -9 30 2 3 3 17 -1
30 -10 22 -14 24 -14 30 2 4 9 10 13 13 8 10 -13 51 -34 51 -25 0 4 -6 14 -12
22 -7 8 -3 6 9 -4 13 -10 21 -21 19 -25 -7 -11 56 -11 76 0 15 8 19 8 13 0 -8
-13 52 -10 74 4 16 10 51 16 103 18 20 1 34 5 31 11 -4 5 0 7 9 4 8 -4 15 0
15 8 0 7 -4 11 -8 8 -4 -2 -1 9 7 25 10 19 20 28 29 24 8 -3 15 -7 15 -10 0
-3 -7 -2 -16 1 -8 3 -12 2 -9 -4 3 -6 13 -10 21 -10 8 0 13 -4 9 -9 -3 -6 3
-8 14 -6 11 2 22 -3 25 -11 3 -7 12 -11 21 -8 9 4 17 -1 21 -11 5 -13 9 -14
15 -3 6 9 9 10 9 1 0 -7 7 -10 17 -6 10 4 14 2 10 -4 -5 -7 0 -9 13 -6 11 3
17 10 14 17 -3 6 4 0 16 -13 18 -21 24 -22 46 -12 31 14 34 14 34 0 0 -5 -4
-8 -9 -4 -5 3 -12 2 -15 -3 -2 -4 35 -8 84 -8 49 0 86 4 84 8 -2 4 -13 5 -22
3 -10 -2 -23 5 -29 14 -9 14 -8 18 3 18 7 0 11 -4 9 -8 -8 -13 22 -18 35 -6
10 9 11 9 6 0 -4 -7 -4 -13 1 -14 4 0 16 -2 26 -4 9 -2 15 1 11 6 -3 5 -10 6
-16 3 -6 -4 -8 -3 -5 3 3 5 22 8 41 7 21 -2 36 1 36 8 0 6 7 5 17 -3 15 -12
16 -12 10 4 -6 15 -4 16 15 6 18 -10 20 -9 15 5 -3 8 -1 18 5 22 6 4 8 3 4 -4
-3 -6 -2 -13 4 -17 5 -3 10 1 10 9 0 9 3 15 8 14 4 -2 18 6 32 16 14 10 17 16
8 13 -10 -4 -20 -2 -23 3 -4 6 -1 10 4 10 6 0 11 4 11 10 0 5 -8 7 -17 3 -16
-5 -15 -4 1 9 13 10 15 17 8 22 -7 4 -12 13 -12 19 0 7 4 6 10 -3 8 -13 11
-13 22 -1 7 8 8 11 2 8 -7 -4 -14 2 -17 14 -5 17 -3 18 9 8 12 -10 13 -9 8 6
-5 13 -4 16 4 11 8 -5 10 -2 5 9 -4 13 -7 14 -14 3 -5 -8 -7 -3 -5 15 1 15 6
30 11 35 4 4 5 2 1 -5 -3 -6 -2 -14 3 -17 5 -4 8 2 6 11 -1 10 3 24 9 32 9 12
8 13 -3 6 -11 -6 -13 -3 -9 13 4 12 3 22 -2 22 -4 0 -11 7 -14 16 -5 13 -3 14
7 6 10 -8 13 -6 13 8 0 10 -4 16 -9 13 -11 -6 -38 17 -32 27 3 5 1 11 -5 15
-6 4 -8 11 -4 16 3 6 -3 18 -15 28 -11 10 -18 21 -14 25 3 3 -1 6 -10 6 -9 0
-17 5 -17 11 0 8 -6 7 -17 -2 -11 -10 -14 -10 -9 -1 5 8 -1 12 -21 13 -24 0
-25 1 -8 8 11 5 24 6 29 3 5 -3 6 0 3 5 -4 6 -18 8 -32 5 -16 -3 -25 0 -25 8
0 9 -4 9 -17 -1 -14 -12 -16 -12 -8 0 6 11 4 13 -8 8 -9 -3 -19 -2 -22 3 -7
12 -35 6 -44 -9 -6 -9 -10 -8 -16 6 -5 10 -7 22 -6 26 0 4 -12 1 -28 -8 -34
-17 -45 -19 -37 -6 3 5 -1 12 -10 15 -10 4 -13 2 -8 -6 5 -8 1 -9 -12 -5 -18
7 -18 6 -1 -7 16 -12 16 -14 2 -20 -11 -4 -14 -2 -9 6 5 7 2 9 -9 5 -11 -4
-14 -2 -10 9 3 7 0 14 -6 14 -6 0 -11 -6 -11 -14 0 -9 -8 -12 -24 -9 -13 3
-27 0 -30 -6 -4 -6 -13 -11 -19 -11 -7 0 -6 4 3 10 11 7 9 9 -10 6 -14 -1 -34
-8 -45 -15 -16 -10 -17 -11 -2 -7 11 3 15 2 12 -4 -3 -6 -12 -10 -19 -10 -8 0
-19 -7 -26 -15 -7 -8 -16 -12 -21 -9 -5 3 -15 2 -21 -3 -25 -15 -33 -10 -34
18 -2 28 -2 28 16 7 13 -17 17 -18 17 -5 0 9 -4 14 -8 12 -4 -3 -9 2 -13 10
-3 9 -12 12 -22 8 -13 -5 -15 -3 -9 8 8 12 6 12 -8 0 -9 -7 -17 -9 -17 -4 0 5
-18 9 -40 9 -22 -1 -40 2 -40 6 0 5 -5 8 -11 8 -5 0 -7 -4 -4 -10 3 -6 -1 -7
-9 -4 -9 3 -14 9 -11 13 2 4 -12 7 -31 6 -19 -1 -34 3 -34 9 0 7 -3 7 -8 1 -4
-5 -15 -11 -25 -11 -15 -2 -16 1 -5 15 12 14 11 15 -4 2 -10 -7 -18 -10 -18
-5 0 4 -5 3 -12 -4 -14 -14 -32 -16 -23 -3 3 5 1 12 -4 15 -5 4 -8 -2 -6 -11z
m151 -32 c2 -7 0 -7 -3 -1 -3 7 -9 8 -17 1 -9 -8 -13 -7 -13 3 0 17 30 14 33
-3z m539 9 c-3 -5 -12 -10 -18 -10 -7 0 -6 4 3 10 19 12 23 12 15 0z m-588
-17 c0 -9 -4 -10 -12 -3 -7 6 -21 8 -31 4 -15 -5 -16 -4 -5 4 20 14 48 11 48
-5z m-277 -12 c0 -5 -7 -12 -16 -15 -14 -5 -15 -4 -4 9 14 17 20 19 20 6z
m878 -26 c23 -2 45 1 48 6 4 6 11 6 19 -1 8 -7 19 -9 25 -5 5 3 10 2 10 -4 0
-6 7 -7 17 -4 11 4 14 3 9 -5 -4 -7 -1 -12 8 -12 8 0 20 -8 25 -17 6 -10 11
-14 11 -8 0 5 7 -1 16 -13 10 -15 22 -21 33 -17 12 5 13 3 4 -6 -9 -9 -7 -16
10 -31 l22 -19 -22 11 c-19 9 -22 8 -17 -5 4 -8 12 -15 19 -15 8 0 10 -9 7
-26 -3 -19 -1 -25 7 -20 6 4 11 3 11 -2 0 -6 -7 -13 -16 -16 -8 -3 -12 -2 -9
3 3 5 1 12 -3 15 -5 3 -9 -6 -8 -21 1 -15 -5 -28 -14 -30 -13 -4 -13 -3 0 6 8
6 10 11 5 11 -6 0 -16 -5 -22 -11 -6 -6 -24 -12 -41 -13 -23 -2 -29 1 -24 14
5 13 4 13 -13 0 -15 -12 -19 -13 -23 -1 -4 11 -6 11 -13 0 -8 -12 -11 -11 -19
1 -5 8 -10 10 -10 4 0 -14 -30 -14 -30 0 0 6 -5 4 -10 -4 -6 -10 -10 -11 -10
-2 0 6 -5 12 -11 12 -5 0 -8 -4 -5 -8 3 -5 -1 -9 -9 -9 -8 0 -15 3 -15 7 0 3
-14 6 -30 5 -20 0 -29 -4 -25 -12 2 -7 -1 -12 -7 -10 -23 4 -18 -30 6 -43 14
-7 23 -17 20 -21 -2 -5 11 -7 31 -5 20 1 39 -2 42 -7 4 -6 1 -7 -7 -2 -9 5
-11 4 -6 -4 6 -9 11 -9 22 0 10 8 14 8 14 0 0 -6 5 -11 11 -11 5 0 8 4 4 9 -3
6 15 9 44 7 27 -1 48 2 45 6 -3 4 5 6 18 5 13 -2 27 2 33 9 23 29 38 20 42
-27 3 -40 1 -47 -19 -58 -13 -6 -15 -9 -5 -7 27 8 20 -1 -13 -18 -17 -8 -41
-13 -55 -10 -15 3 -25 0 -25 -7 0 -8 -4 -8 -15 1 -12 10 -15 10 -15 -1 0 -11
-2 -11 -10 1 -8 13 -14 8 -12 -11 0 -3 -14 -3 -31 -1 -18 1 -45 3 -61 2 -15 0
-35 5 -44 12 -12 10 -14 10 -8 1 9 -17 -6 -17 -23 -1 -11 11 -12 10 -6 -2 8
-13 7 -13 -8 -1 -12 10 -17 10 -17 2 0 -8 -6 -7 -16 3 -18 19 -28 21 -18 4 5
-8 2 -9 -11 -5 -9 4 -24 2 -32 -5 -11 -9 -13 -8 -11 3 2 8 -3 13 -11 11 -12
-3 -12 -1 -1 15 8 10 10 15 6 11 -5 -4 -16 -2 -24 5 -13 9 -14 9 -8 0 13 -23
-27 -1 -59 31 -16 16 -22 24 -12 17 26 -21 20 -5 -10 25 -16 15 -21 23 -13 18
9 -5 7 -1 -3 9 -17 15 -17 17 -2 17 14 0 14 2 3 14 -12 11 -15 45 -9 89 1 5 6
5 12 1 8 -5 8 -1 0 14 -8 16 -7 23 7 33 15 12 16 12 4 -2 -10 -14 -10 -18 1
-22 11 -4 13 3 11 29 -1 20 2 32 7 28 13 -7 41 15 33 27 -3 5 0 9 6 9 6 0 8 4
5 10 -3 6 1 7 9 4 10 -4 16 -1 16 7 0 11 3 11 10 -1 6 -10 10 -11 10 -2 0 6 6
12 14 12 8 0 18 4 21 10 4 6 -1 7 -12 3 -10 -3 -15 -3 -11 2 4 4 20 8 36 9 16
1 37 8 47 16 11 8 16 10 12 3 -4 -6 -3 -14 3 -18 5 -3 10 -1 10 6 0 8 5 7 17
-2 11 -10 14 -10 9 -1 -9 15 6 16 21 1 8 -8 13 -7 18 2 5 8 4 10 -3 5 -8 -5
-10 -2 -6 9 6 14 7 14 18 0 7 -10 30 -18 54 -20z m-17 12 c-10 -9 -11 -8 -5 6
3 10 9 15 12 12 3 -3 0 -11 -7 -18z m-649 -6 c-4 -13 -2 -13 15 2 16 14 23 15
29 6 5 -8 3 -10 -6 -4 -9 5 -11 4 -6 -3 5 -9 13 -9 26 -2 25 13 33 13 24 -2
-5 -9 -2 -9 9 1 14 11 17 11 17 0 0 -8 6 -6 16 7 8 10 13 14 10 7 -4 -6 -2
-14 4 -18 5 -3 10 0 10 7 0 8 3 9 8 2 4 -5 17 -10 30 -11 40 -1 43 -3 36 -15
-5 -8 -2 -8 10 1 15 12 17 12 14 0 -2 -8 3 -13 10 -11 8 1 11 -2 7 -8 -3 -6
-10 -8 -15 -5 -5 3 -11 1 -14 -4 -4 -5 -1 -13 4 -16 8 -5 5 -14 -7 -28 -10
-11 -12 -17 -5 -13 6 4 12 2 12 -3 0 -6 -5 -11 -11 -11 -5 0 -7 -6 -3 -12 5
-8 0 -7 -11 2 -10 8 -16 10 -12 3 4 -6 3 -14 -3 -18 -5 -3 -10 2 -10 12 0 15
-2 16 -10 3 -8 -13 -10 -12 -10 3 0 10 -4 16 -10 12 -5 -3 -6 -13 -3 -23 5
-14 3 -14 -9 2 -9 12 -20 16 -28 11 -7 -4 -16 -2 -21 6 -7 11 -9 10 -9 -3 0
-10 -5 -18 -11 -18 -5 0 -8 4 -4 9 3 6 -3 9 -14 8 -10 0 -17 -6 -14 -12 2 -7
-3 -12 -11 -12 -8 0 -13 3 -11 7 2 3 -1 12 -7 20 -8 12 -9 11 -4 -4 5 -13 2
-17 -9 -13 -8 4 -17 1 -21 -5 -4 -6 -3 -8 3 -5 6 4 16 0 22 -7 16 -19 -10 -16
-34 4 -15 12 -19 12 -30 -3 -6 -9 -15 -14 -18 -11 -3 4 -4 -6 -1 -21 4 -25 3
-27 -11 -15 -14 12 -14 10 -5 -16 6 -16 17 -32 23 -37 7 -5 1 -5 -13 -1 l-25
6 27 -21 c15 -12 32 -20 37 -16 5 3 13 0 17 -6 4 -7 3 -9 -4 -5 -6 3 -13 2
-16 -3 -7 -11 13 -9 33 3 9 6 12 5 8 -1 -7 -11 11 -30 28 -28 6 0 16 4 24 9 8
5 16 4 21 -4 6 -9 9 -9 15 -1 4 7 12 8 18 3 14 -10 27 -10 45 1 7 5 12 3 12
-5 0 -10 2 -10 9 1 6 9 11 10 15 2 4 -6 11 -9 15 -6 5 2 16 -2 26 -9 14 -10
15 -15 5 -21 -9 -6 -11 -4 -5 5 5 9 4 11 -4 6 -9 -6 -9 -11 -1 -21 7 -8 9 -24
5 -36 -5 -16 -4 -19 5 -14 9 5 11 4 6 -4 -4 -6 -12 -9 -17 -6 -5 4 -9 1 -9 -4
0 -6 -5 -11 -11 -11 -5 0 -7 6 -4 13 4 6 -1 3 -9 -7 -9 -11 -16 -15 -16 -10 0
6 -7 11 -15 11 -8 0 -12 -4 -9 -9 3 -4 0 -8 -5 -8 -6 0 -11 5 -11 11 0 5 -5 7
-10 4 -6 -4 -7 -12 -3 -18 4 -7 -6 -4 -21 7 -16 10 -25 12 -21 5 6 -9 3 -11
-9 -6 -9 4 -15 3 -12 -1 3 -5 -1 -9 -8 -9 -9 0 -12 7 -8 16 5 14 3 14 -11 2
-12 -9 -17 -10 -17 -2 0 7 -5 9 -10 6 -6 -4 -8 -10 -6 -14 3 -4 -7 -6 -22 -5
-42 2 -44 3 -36 17 6 9 4 9 -8 -1 -13 -10 -17 -10 -21 0 -4 10 -8 10 -16 -2
-7 -10 -11 -11 -11 -3 0 8 -11 11 -30 9 -16 -2 -28 -1 -26 3 2 3 -3 12 -11 20
-13 12 -14 11 -9 -10 l7 -24 -14 23 c-7 12 -16 20 -20 16 -3 -4 -13 -1 -22 6
-8 7 -21 10 -29 7 -10 -4 -14 0 -11 13 2 11 -1 23 -7 26 -7 4 -8 2 -4 -4 4 -7
2 -12 -3 -12 -6 0 -11 7 -11 16 0 8 -4 13 -9 10 -5 -4 -15 7 -23 24 -7 16 -17
30 -22 30 -4 0 -2 8 5 17 12 14 12 16 0 8 -11 -6 -13 -3 -9 13 4 13 1 22 -5
22 -8 0 -8 3 -2 8 6 4 10 22 10 40 -1 22 6 38 22 49 12 9 20 20 17 25 -3 4 0
16 6 25 11 17 11 17 6 0 -4 -12 -2 -16 6 -11 29 18 47 38 41 47 -3 6 -1 7 4 4
6 -4 16 0 23 8 7 8 17 15 22 15 5 0 2 -7 -6 -16 -22 -21 -20 -27 4 -12 11 7
20 20 21 28 0 10 2 11 6 2 2 -6 9 -9 14 -6 6 3 5 12 -3 22 -12 15 -11 16 4 4
9 -8 23 -10 29 -6 8 5 9 3 4 -5 -6 -10 -3 -11 14 -2 11 7 21 8 21 4 0 -4 5 -1
10 7 5 8 10 10 10 4 0 -6 7 -11 15 -11 8 0 15 5 15 10 0 5 8 3 17 -4 9 -8 14
-9 10 -2 -4 6 -1 13 5 15 25 9 36 4 30 -11z m688 15 c0 -3 -4 -8 -10 -11 -5
-3 -10 -1 -10 4 0 6 5 11 10 11 6 0 10 -2 10 -4z m-516 -179 c-3 -8 3 -20 12
-28 16 -12 17 -12 11 3 -3 10 1 22 11 29 14 11 15 11 6 0 -13 -14 -7 -51 7
-51 5 0 9 -7 9 -16 0 -9 -5 -12 -12 -8 -8 5 -9 2 -5 -10 4 -11 3 -15 -4 -10
-8 4 -9 -1 -5 -17 7 -24 7 -24 -8 1 -14 22 -21 21 -17 -3 1 -5 -6 -4 -15 1
-10 6 -30 6 -46 2 -27 -8 -41 3 -15 13 6 3 2 4 -9 4 -15 -1 -20 -6 -16 -17 3
-8 2 -12 -3 -8 -4 4 -15 2 -23 -5 -13 -10 -14 -9 -8 2 7 10 3 12 -15 7 -13 -3
-18 -3 -11 0 6 3 12 10 12 15 0 6 -4 8 -9 4 -5 -3 -16 2 -24 10 -9 8 -22 15
-29 16 -10 0 -10 2 0 6 6 2 10 9 7 14 -4 5 2 6 11 2 13 -5 15 -3 9 8 -7 11 -5
11 10 -1 11 -9 16 -10 11 -2 -4 7 -1 12 9 12 10 0 13 -5 9 -12 -4 -7 -3 -8 4
-4 7 4 12 14 12 22 0 8 5 14 11 14 6 0 9 -7 6 -15 -4 -8 -1 -17 5 -21 7 -5 8
-3 3 5 -9 16 76 12 88 -4 5 -5 6 1 3 16 -3 14 -3 29 1 33 10 10 13 7 7 -7z
m-144 -141 c0 -3 -4 -8 -10 -11 -5 -3 -10 -1 -10 4 0 6 5 11 10 11 6 0 10 -2
10 -4z m180 0 c0 -3 -4 -8 -10 -11 -5 -3 -10 -1 -10 4 0 6 5 11 10 11 6 0 10
-2 10 -4z m-182 -187 c-3 -8 -7 -3 -11 10 -4 17 -3 21 5 13 5 -5 8 -16 6 -23z
m84 17 c10 6 11 4 0 -7 -10 -11 -15 -10 -30 6 -15 17 -15 18 0 6 9 -7 23 -9
30 -5z m496 -11 c-3 -3 -9 2 -12 12 -6 14 -5 15 5 6 7 -7 10 -15 7 -18z m-608
11 c0 -2 -8 -10 -17 -17 -16 -13 -17 -12 -4 4 13 16 21 21 21 13z m126 -24
c-17 -16 -18 -16 -5 5 7 12 15 20 18 17 3 -2 -3 -12 -13 -22z m428 6 c-7 -10
-24 -10 -24 0 0 5 7 9 15 9 8 0 12 -4 9 -9z m-544 -8 c0 -5 -5 -10 -11 -10 -5
0 -7 5 -4 10 3 6 8 10 11 10 2 0 4 -4 4 -10z m75 0 c3 -5 1 -10 -4 -10 -6 0
-11 5 -11 10 0 6 2 10 4 10 3 0 8 -4 11 -10z m589 2 c2 -4 -5 -9 -17 -9 -17
-2 -19 0 -7 7 18 12 18 12 24 2z"/>
<path d="M2181 425 c-1 -17 -3 -18 -11 -5 -9 13 -12 13 -20 -2 -6 -9 -19 -15
-30 -13 -14 3 -17 -1 -13 -12 4 -10 2 -14 -5 -9 -6 3 -13 2 -17 -4 -3 -5 1
-10 10 -10 9 0 13 -4 10 -10 -4 -6 6 -10 22 -10 19 0 24 -3 15 -9 -11 -7 -10
-9 3 -14 9 -4 13 -3 10 2 -7 13 25 19 52 10 15 -6 27 -3 37 6 22 23 13 49 -22
59 -17 6 -33 17 -35 25 -3 11 -5 10 -6 -4z"/>
<path d="M2075 270 c-3 -5 -2 -10 4 -10 5 0 13 5 16 10 3 6 2 10 -4 10 -5 0
-13 -4 -16 -10z"/>
<path d="M2259 163 c-13 -17 -13 -17 6 -3 11 8 22 16 24 17 2 2 0 3 -6 3 -6 0
-17 -8 -24 -17z"/>
<path d="M1500 80 c-9 -6 -10 -10 -3 -10 6 0 15 5 18 10 8 12 4 12 -15 0z"/>
<path d="M1890 519 c0 -5 5 -7 10 -4 6 3 10 8 10 11 0 2 -4 4 -10 4 -5 0 -10
-5 -10 -11z"/>
<path d="M2476 438 c5 -7 9 -16 9 -20 0 -11 19 -11 22 -1 2 4 -6 14 -18 21
-17 11 -20 11 -13 0z"/>
<path d="M1116 398 c3 -5 10 -6 15 -3 13 9 11 12 -6 12 -8 0 -12 -4 -9 -9z"/>
<path d="M1086 321 c-3 -5 1 -14 9 -21 10 -9 15 -9 15 -1 0 6 -5 11 -11 11 -5
0 -7 5 -4 10 3 6 4 10 1 10 -3 0 -7 -4 -10 -9z"/>
<path d="M1433 17 c0 -7 9 -13 19 -13 10 0 18 1 18 3 0 1 -8 7 -18 12 -13 7
-19 6 -19 -2z"/>
</g>
</svg>
